{
  "accessors": [
    {
      "bufferView": 2,
      "componentType": 5126,
      "count": 65532,
      "max": [
        3.2716350555419922,
        1.1551856994628906,
        1.5204322338104248
      ],
      "min": [
        0.0052673816680908203,
        0,
        0.056783020496368408
      ],
      "type": "VEC3"
    },
    {
      "bufferView": 2,
      "byteOffset": 786384,
      "componentType": 5126,
      "count": 65532,
      "max": [
        0.9999731183052063,
        0.99998921155929565,
        0.99999451637268066
      ],
      "min": [
        -0.99984943866729736,
        -0.99999421834945679,
        -0.99999988079071045
      ],
      "type": "VEC3"
    },
    {
      "bufferView": 3,
      "componentType": 5126,
      "count": 65532,
      "max": [
        0.99988400936126709,
        0.99999934434890747,
        0.99999064207077026,
        1
      ],
      "min": [
        -0.99940663576126099,
        -0.9999963641166687,
        -0.9999052882194519,
        -1
      ],
      "type": "VEC4"
    },
    {
      "bufferView": 1,
      "componentType": 5126,
      "count": 65532,
      "max": [
        0.99419844150543213,
        0.99988424777984619
      ],
      "min": [
        0.0046417000703513622,
        0.0037407735362648964
      ],
      "type": "VEC2"
    },
    {
      "bufferView": 0,
      "componentType": 5125,
      "count": 324780,
      "max": [
        65531
      ],
      "min": [
        0
      ],
      "type": "SCALAR"
    },
    {
      "bufferView": 2,
      "byteOffset": 1572768,
      "componentType": 5126,
      "count": 65532,
      "max": [
        3.1807003021240234,
        1.1957902908325195,
        1.4990614652633667
      ],
      "min": [
        0.019756078720092773,
        0.032022476196289062,
        0
      ],
      "type": "VEC3"
    },
    {
      "bufferView": 2,
      "byteOffset": 2359152,
      "componentType": 5126,
      "count": 65532,
      "max": [
        0.99981707334518433,
        0.99999642372131348,
        0.99991613626480103
      ],
      "min": [
        -0.99986159801483154,
        -0.99997377395629883,
        -0.99999886751174927
      ],
      "type": "VEC3"
    },
    {
      "bufferView": 3,
      "byteOffset": 1048512,
      "componentType": 5126,
      "count": 65532,
      "max": [
        0.99983710050582886,
        0.99997711181640625,
        0.99998223781585693,
        1
      ],
      "min": [
        -0.9998244047164917,
        -0.99997836351394653,
        -0.99999779462814331,
        -1
      ],
      "type": "VEC4"
    },
    {
      "bufferView": 1,
      "byteOffset": 524256,
      "componentType": 5126,
      "count": 65532,
      "max": [
        0.99418985843658447,
        0.99918973445892334
      ],
      "min": [
        0.0055095301941037178,
        0.010056335479021072
      ],
      "type": "VEC2"
    },
    {
      "bufferView": 0,
      "byteOffset": 1299120,
      "componentType": 5125,
      "count": 329217,
      "max": [
        65531
      ],
      "min": [
        0
      ],
      "type": "SCALAR"
    },
    {
      "bufferView": 2,
      "byteOffset": 3145536,
      "componentType": 5126,
      "count": 65532,
      "max": [
        3.2732851505279541,
        1.1844959259033203,
        1.5182678699493408
      ],
      "min": [
        0.0059642791748046875,
        0,
        0.027930140495300293
      ],
      "type": "VEC3"
    },
    {
      "bufferView": 2,
      "byteOffset": 3931920,
      "componentType": 5126,
      "count": 65532,
      "max": [
        0.99999290704727173,
        0.99993056058883667,
        0.99999451637268066
      ],
      "min": [
        -0.9999927282333374,
        -0.99996757507324219,
        -0.99999445676803589
      ],
      "type": "VEC3"
    },
    {
      "bufferView": 3,
      "byteOffset": 2097024,
      "componentType": 5126,
      "count": 65532,
      "max": [
        0.99999409914016724,
        0.99999856948852539,
        0.99999946355819702,
        1
      ],
      "min": [
        -0.99997115135192871,
        -0.9999735951423645,
        -0.99999934434890747,
        -1
      ],
      "type": "VEC4"
    },
    {
      "bufferView": 1,
      "byteOffset": 1048512,
      "componentType": 5126,
      "count": 65532,
      "max": [
        0.99441218376159668,
        0.99888694286346436
      ],
      "min": [
        0.0079596396535634995,
        0.0050295079126954079
      ],
      "type": "VEC2"
    },
    {
      "bufferView": 0,
      "byteOffset": 2615988,
      "componentType": 5125,
      "count": 328791,
      "max": [
        65531
      ],
      "min": [
        0
      ],
      "type": "SCALAR"
    },
    {
      "bufferView": 2,
      "byteOffset": 4718304,
      "componentType": 5126,
      "count": 65532,
      "max": [
        3.2657520771026611,
        1.1934890747070312,
        1.5133423805236816
      ],
      "min": [
        0.081683516502380371,
        0.0031461715698242188,
        0.00020498037338256836
      ],
      "type": "VEC3"
    },
    {
      "bufferView": 2,
      "byteOffset": 5504688,
      "componentType": 5126,
      "count": 65532,
      "max": [
        0.99986082315444946,
        0.9999733567237854,
        0.99994349479675293
      ],
      "min": [
        -0.99998372793197632,
        -0.99998539686203003,
        -0.99998211860656738
      ],
      "type": "VEC3"
    },
    {
      "bufferView": 3,
      "byteOffset": 3145536,
      "componentType": 5126,
      "count": 65532,
      "max": [
        0.99999749660491943,
        0.99994450807571411,
        0.99999666213989258,
        1
      ],
      "min": [
        -0.99997961521148682,
        -0.99995172023773193,
        -0.99999982118606567,
        -1
      ],
      "type": "VEC4"
    },
    {
      "bufferView": 1,
      "byteOffset": 1572768,
      "componentType": 5126,
      "count": 65532,
      "max": [
        0.99014508724212646,
        0.99665391445159912
      ],
      "min": [
        0.0065071894787251949,
        0.012113949283957481
      ],
      "type": "VEC2"
    },
    {
      "bufferView": 0,
      "byteOffset": 3931152,
      "componentType": 5125,
      "count": 319536,
      "max": [
        65531
      ],
      "min": [
        0
      ],
      "type": "SCALAR"
    },
    {
      "bufferView": 2,
      "byteOffset": 6291072,
      "componentType": 5126,
      "count": 65532,
      "max": [
        3.2726602554321289,
        1.195777416229248,
        1.5133750438690186
      ],
      "min": [
        0,
        0.0001392364501953125,
        0.0037222504615783691
      ],
      "type": "VEC3"
    },
    {
      "bufferView": 2,
      "byteOffset": 7077456,
      "componentType": 5126,
      "count": 65532,
      "max": [
        0.99996966123580933,
        0.99998706579208374,
        0.99994349479675293
      ],
      "min": [
        -0.9999927282333374,
        -0.99998998641967773,
        -0.99999988079071045
      ],
      "type": "VEC3"
    },
    {
      "bufferView": 3,
      "byteOffset": 4194048,
      "componentType": 5126,
      "count": 65532,
      "max": [
        0.99999356269836426,
        0.99999189376831055,
        0.99998760223388672,
        1
      ],
      "min": [
        -0.99989414215087891,
        -0.99995172023773193,
        -0.99999451637268066,
        -1
      ],
      "type": "VEC4"
    },
    {
      "bufferView": 1,
      "byteOffset": 2097024,
      "componentType": 5126,
      "count": 65532,
      "max": [
        0.99416816234588623,
        0.99880272150039673
      ],
      "min": [
        0.0059384675696492195,
        0.0039539462886750698
      ],
      "type": "VEC2"
    },
    {
      "bufferView": 0,
      "byteOffset": 5209296,
      "componentType": 5125,
      "count": 298398,
      "max": [
        65531
      ],
      "min": [
        0
      ],
      "type": "SCALAR"
    },
    {
      "bufferView": 2,
      "byteOffset": 7863840,
      "componentType": 5126,
      "count": 65532,
      "max": [
        3.2723960876464844,
        1.1952486038208008,
        1.5202786922454834
      ],
      "min": [
        0,
        0,
        0.0017108917236328125
      ],
      "type": "VEC3"
    },
    {
      "bufferView": 2,
      "byteOffset": 8650224,
      "componentType": 5126,
      "count": 65532,
      "max": [
        0.9999731183052063,
        0.99999642372131348,
        0.99991178512573242
      ],
      "min": [
        -0.99978125095367432,
        -0.99996334314346313,
        -0.99999445676803589
      ],
      "type": "VEC3"
    },
    {
      "bufferView": 3,
      "byteOffset": 5242560,
      "componentType": 5126,
      "count": 65532,
      "max": [
        0.9999537467956543,
        0.99999368190765381,
        0.99992632865905762,
        1
      ],
      "min": [
        -0.99990320205688477,
        -0.9999963641166687,
        -0.99999463558197021,
        -1
      ],
      "type": "VEC4"
    },
    {
      "bufferView": 1,
      "byteOffset": 2621280,
      "componentType": 5126,
      "count": 65532,
      "max": [
        0.99377644062042236,
        1.0001665353775024
      ],
      "min": [
        0.0056336959823966026,
        0.0040858904831111431
      ],
      "type": "VEC2"
    },
    {
      "bufferView": 0,
      "byteOffset": 6402888,
      "componentType": 5125,
      "count": 173463,
      "max": [
        65531
      ],
      "min": [
        0
      ],
      "type": "SCALAR"
    },
    {
      "bufferView": 2,
      "byteOffset": 9436608,
      "componentType": 5126,
      "count": 20744,
      "max": [
        3.271975040435791,
        1.1908550262451172,
        1.5123348236083984
      ],
      "min": [
        0.0033612251281738281,
        0.000980377197265625,
        0.0003172755241394043
      ],
      "type": "VEC3"
    },
    {
      "bufferView": 2,
      "byteOffset": 9685536,
      "componentType": 5126,
      "count": 20744,
      "max": [
        0.99997347593307495,
        0.99998104572296143,
        0.99960863590240479
      ],
      "min": [
        -0.99961787462234497,
        -0.99997389316558838,
        -0.9999464750289917
      ],
      "type": "VEC3"
    },
    {
      "bufferView": 3,
      "byteOffset": 6291072,
      "componentType": 5126,
      "count": 20744,
      "max": [
        0.99993127584457397,
        0.99999368190765381,
        0.99998193979263306,
        1
      ],
      "min": [
        -0.99970966577529907,
        -0.99994814395904541,
        -0.99999982118606567,
        -1
      ],
      "type": "VEC4"
    },
    {
      "bufferView": 1,
      "byteOffset": 3145536,
      "componentType": 5126,
      "count": 20744,
      "max": [
        0.9938579797744751,
        0.99972140789031982
      ],
      "min": [
        0.006579284556210041,
        0.0047852210700511932
      ],
      "type": "VEC2"
    },
    {
      "bufferView": 0,
      "byteOffset": 7096740,
      "componentType": 5125,
      "count": 26061,
      "max": [
        20743
      ],
      "min": [
        0
      ],
      "type": "SCALAR"
    }
  ],
  "asset": {
    "extras": {
      "author": "Nevena Knežević (https://sketchfab.com/gavez)",
      "license": "CC-BY-4.0 (http://creativecommons.org/licenses/by/4.0/)",
      "source": "https://sketchfab.com/models/4268eb4870a045478cce51461f31a413",
      "title": "Brothers shoe"
    },
    "generator": "Sketchfab-3.18.5",
    "version": "2.0"
  },
  "bufferViews": [
    {
      "buffer": 0,
      "byteLength": 7200984,
      "byteOffset": 0,
      "name": "floatBufferViews",
      "target": 34963
    },
    {
      "buffer": 0,
      "byteLength": 3311488,
      "byteOffset": 7200984,
      "byteStride": 8,
      "name": "floatBufferViews",
      "target": 34962
    },
    {
      "buffer": 0,
      "byteLength": 9934464,
      "byteOffset": 10512472,
      "byteStride": 12,
      "name": "floatBufferViews",
      "target": 34962
    },
    {
      "buffer": 0,
      "byteLength": 6622976,
      "byteOffset": 20446936,
      "byteStride": 16,
      "name": "floatBufferViews",
      "target": 34962
    }
  ],
  "buffers": [
    {
      "byteLength": 27069912,
      "uri": "scene.bin"
    }
  ],
  "extensionsUsed": [
    "KHR_materials_unlit"
  ],
  "images": [
    {
      "uri": "textures/material_0_baseColor.jpeg"
    }
  ],
  "materials": [
    {
      "doubleSided": true,
      "emissiveFactor": [
        0,
        0,
        0
      ],
      "extensions": {
        "KHR_materials_unlit": {}
      },
      "name": "material_0",
      "pbrMetallicRoughness": {
        "baseColorFactor": [
          1,
          1,
          1,
          1
        ],
        "baseColorTexture": {
          "index": 0,
          "texCoord": 0
        },
        "metallicFactor": 0,
        "roughnessFactor": 1
      }
    }
  ],
  "meshes": [
    {
      "primitives": [
        {
          "attributes": {
            "NORMAL": 1,
            "POSITION": 0,
            "TANGENT": 2,
            "TEXCOORD_0": 3
          },
          "indices": 4,
          "material": 0,
          "mode": 4
        }
      ]
    },
    {
      "primitives": [
        {
          "attributes": {
            "NORMAL": 6,
            "POSITION": 5,
            "TANGENT": 7,
            "TEXCOORD_0": 8
          },
          "indices": 9,
          "material": 0,
          "mode": 4
        }
      ]
    },
    {
      "primitives": [
        {
          "attributes": {
            "NORMAL": 11,
            "POSITION": 10,
            "TANGENT": 12,
            "TEXCOORD_0": 13
          },
          "indices": 14,
          "material": 0,
          "mode": 4
        }
      ]
    },
    {
      "primitives": [
        {
          "attributes": {
            "NORMAL": 16,
            "POSITION": 15,
            "TANGENT": 17,
            "TEXCOORD_0": 18
          },
          "indices": 19,
          "material": 0,
          "mode": 4
        }
      ]
    },
    {
      "primitives": [
        {
          "attributes": {
            "NORMAL": 21,
            "POSITION": 20,
            "TANGENT": 22,
            "TEXCOORD_0": 23
          },
          "indices": 24,
          "material": 0,
          "mode": 4
        }
      ]
    },
    {
      "primitives": [
        {
          "attributes": {
            "NORMAL": 26,
            "POSITION": 25,
            "TANGENT": 27,
            "TEXCOORD_0": 28
          },
          "indices": 29,
          "material": 0,
          "mode": 4
        }
      ]
    },
    {
      "primitives": [
        {
          "attributes": {
            "NORMAL": 31,
            "POSITION": 30,
            "TANGENT": 32,
            "TEXCOORD_0": 33
          },
          "indices": 34,
          "material": 0,
          "mode": 4
        }
      ]
    }
  ],
  "nodes": [
    {
      "children": [
        1
      ],
      "name": "RootNode (gltf orientation matrix)",
      "rotation": [
        -0.70710678118654746,
        -0,
        -0,
        0.70710678118654757
      ]
    },
    {
      "children": [
        2
      ],
      "matrix": [
        -1,
        0,
        0,
        0,
        0,
        1,
        0,
        0,
        0,
        0,
        -1,
        0,
        -0.85217630863189697,
        0,
        0.45068445801734924,
        1
      ],
      "name": "RootNode (model correction matrix)"
    },
    {
      "children": [
        3,
        4,
        5,
        6,
        7,
        8,
        9
      ],
      "matrix": [
        1,
        0,
        0,
        0,
        0,
        1,
        0,
        0,
        0,
        0,
        1,
        0,
        -2.0627264976501465,
        -8.3132514953613281,
        -0.534873366355896,
        1
      ],
      "name": "cipela za upload.OBJ.cleaner.gles"
    },
    {
      "mesh": 0,
      "name": ""
    },
    {
      "mesh": 1,
      "name": ""
    },
    {
      "mesh": 2,
      "name": ""
    },
    {
      "mesh": 3,
      "name": ""
    },
    {
      "mesh": 4,
      "name": ""
    },
    {
      "mesh": 5,
      "name": ""
    },
    {
      "mesh": 6,
      "name": ""
    }
  ],
  "samplers": [
    {
      "magFilter": 9729,
      "minFilter": 9987,
      "wrapS": 10497,
      "wrapT": 10497
    }
  ],
  "scene": 0,
  "scenes": [
    {
      "name": "OSG_Scene",
      "nodes": [
        0
      ]
    }
  ],
  "textures": [
    {
      "sampler": 0,
      "source": 0
    }
  ]
}

